<svg width="150" height="150" viewBox="0 0 150 150" fill="none" xmlns="http://www.w3.org/2000/svg">
<path d="M107.208 0.00366211C130.892 0.303702 150 19.5966 150 43.3525V62.333C150 65.4455 147.477 67.9688 144.364 67.9688C141.252 67.9688 138.728 65.4455 138.728 62.333V43.3525C138.728 25.6348 124.365 11.2716 106.647 11.2715H87.667C84.5545 11.2715 82.0312 8.7483 82.0312 5.63576C82.0312 2.52321 84.5545 0 87.667 0H106.647L107.208 0.00366211Z" fill="#4F5E2E"/>
<path d="M11.2715 106.647C11.2716 124.365 25.6348 138.728 43.3525 138.728H62.333C65.4455 138.728 67.9688 141.252 67.9688 144.364C67.9688 147.477 65.4455 150 62.333 150H43.3525C19.5966 150 0.303705 130.892 0.00366211 107.208L0 106.647V87.667C0 84.5545 2.52321 82.0312 5.63576 82.0312C8.7483 82.0312 11.2715 84.5545 11.2715 87.667V106.647Z" fill="#F5F1EB"/>
<path d="M150 106.647L149.996 107.208C149.699 130.706 130.706 149.699 107.208 149.996L106.647 150H87.667C84.5545 150 82.0312 147.477 82.0312 144.364C82.0312 141.252 84.5545 138.728 87.667 138.728H106.647C124.365 138.728 138.728 124.365 138.728 106.647V87.667C138.728 84.5545 141.252 82.0312 144.364 82.0312C147.477 82.0312 150 84.5545 150 87.667V106.647Z" fill="#F5F1EB"/>
<path d="M67.9688 5.63576C67.9688 8.7483 65.4455 11.2715 62.333 11.2715H43.3525C25.6348 11.2716 11.2716 25.6348 11.2715 43.3525V62.333C11.2715 65.4455 8.7483 67.9688 5.63576 67.9688C2.52321 67.9688 0 65.4455 0 62.333V43.3525C4.83256e-05 19.4096 19.4096 5.07358e-05 43.3525 0H62.333C65.4455 0 67.9688 2.52321 67.9688 5.63576Z" fill="#F5F1EB"/>
<path d="M107.208 0.00366211C130.892 0.303702 150 19.5966 150 43.3525V62.333C150 65.4455 147.477 67.9688 144.364 67.9688C141.252 67.9688 138.728 65.4455 138.728 62.333V43.3525C138.728 25.6348 124.365 11.2716 106.647 11.2715H87.667C84.5545 11.2715 82.0312 8.7483 82.0312 5.63576C82.0312 2.52321 84.5545 0 87.667 0H106.647L107.208 0.00366211Z" fill="#F5F1EB"/>
<path d="M79.0104 115.671C71.0927 115.441 62.9312 112.611 57.7619 108.287C55.036 106.063 52.8696 103.952 50.9748 101.694C49.6673 100.236 49.6341 99.4132 50.6814 97.8602C52.3881 95.4564 54.1058 93.327 55.6906 91.3402C56.2226 90.7693 56.749 90.0614 57.026 90.0502C57.4416 90.0334 58.0233 90.6967 58.7381 91.2172C59.3198 91.8805 59.9015 92.5437 60.4778 93.0698C61.3476 93.9962 62.356 94.9169 63.3644 95.8376C66.3895 98.5998 71.6586 101.958 75.997 102.882C76.4181 103.002 77.1162 103.111 77.6703 103.089L77.8088 103.083C81.4048 102.801 85.8653 99.8741 86.2534 95.7381C86.5638 93.116 86.2038 91.0704 85.0348 89.6067C81.8158 85.4789 77.2448 82.2297 72.962 79.2436C70.6792 77.6876 68.3965 76.1315 66.3908 74.5643L66.2468 74.4328C63.5208 72.2079 60.9224 69.7032 58.1632 66.6556C54.1021 62.2871 52.6728 57.8124 53.5762 52.6941C55.3997 42.8691 61.5282 36.5786 71.5793 34.6622C72.6819 34.4804 73.7846 34.2985 74.8927 34.2538C75.0312 34.2482 75.3083 34.2371 75.4468 34.2315C80.018 34.047 84.6389 35.0967 89.5867 37.3692C92.8446 39.0233 95.2603 40.4366 97.4045 41.9982C98.701 43.182 99.4324 44.1139 99.4711 45.0737C99.5043 45.8965 99.1274 46.8731 98.058 47.8777C97.6591 48.3058 97.3986 48.7284 96.9996 49.1565C95.8028 50.4409 94.6114 51.8624 93.1264 52.8838C92.3119 53.3287 91.7689 53.6253 91.3533 53.642C90.7992 53.6644 90.2341 53.4125 89.5194 52.892C87.6577 51.4563 85.9291 49.8779 84.35 48.5681C81.7682 46.4748 78.8371 46.0437 75.9171 45.8868C75.6401 45.898 75.5015 45.9036 75.2245 45.9148L75.086 45.9204C72.4541 46.0266 69.6005 47.5152 68.0434 50.1875C66.4697 52.4486 66.7244 55.3225 68.5194 58.5464C71.0569 62.9764 75.6112 65.8142 79.4841 68.9542L79.6281 69.0858C80.631 69.8694 81.4897 70.5214 82.4871 71.1679C83.3458 71.82 84.1991 72.335 85.0634 73.1242C86.6369 74.2968 88.3545 75.6009 89.9225 76.6364L90.6428 77.2941C95.0752 80.5488 97.8731 84.5563 99.3411 89.9909C101.452 97.597 99.0799 104.148 92.1147 110.335C88.4909 113.365 84.2631 115.184 79.0104 115.671Z" fill="#F5F1EB"/>
<path d="M107.208 0.00366211C130.892 0.303702 150 19.5966 150 43.3525V62.333C150 65.4455 147.477 67.9688 144.364 67.9688C141.252 67.9688 138.728 65.4455 138.728 62.333V43.3525C138.728 25.6348 124.365 11.2716 106.647 11.2715H87.667C84.5545 11.2715 82.0312 8.7483 82.0312 5.63576C82.0312 2.52321 84.5545 0 87.667 0H106.647L107.208 0.00366211Z" fill="#4F5E2E"/>
</svg>
