<svg width="150" height="211" viewBox="0 0 150 211" fill="none" xmlns="http://www.w3.org/2000/svg">
<path d="M107.208 0.00366211C130.892 0.303702 150 19.5966 150 43.3525V62.333C150 65.4455 147.477 67.9688 144.364 67.9688C141.252 67.9688 138.728 65.4455 138.728 62.333V43.3525C138.728 25.6348 124.365 11.2716 106.647 11.2715H87.667C84.5545 11.2715 82.0312 8.7483 82.0312 5.63576C82.0312 2.52321 84.5545 0 87.667 0H106.647L107.208 0.00366211Z" fill="#E57016"/>
<path d="M11.2715 106.647C11.2716 124.365 25.6348 138.728 43.3525 138.728H62.333C65.4455 138.728 67.9688 141.252 67.9688 144.364C67.9688 147.477 65.4455 150 62.333 150H43.3525C19.5966 150 0.303705 130.892 0.00366211 107.208L0 106.647V87.667C0 84.5545 2.52321 82.0312 5.63576 82.0312C8.7483 82.0312 11.2715 84.5545 11.2715 87.667V106.647Z" fill="#F5F1EB"/>
<path d="M150 106.647L149.996 107.208C149.699 130.706 130.706 149.699 107.208 149.996L106.647 150H87.667C84.5545 150 82.0312 147.477 82.0312 144.364C82.0312 141.252 84.5545 138.728 87.667 138.728H106.647C124.365 138.728 138.728 124.365 138.728 106.647V87.667C138.728 84.5545 141.252 82.0312 144.364 82.0312C147.477 82.0312 150 84.5545 150 87.667V106.647Z" fill="#F5F1EB"/>
<path d="M67.9688 5.63576C67.9688 8.7483 65.4455 11.2715 62.333 11.2715H43.3525C25.6348 11.2716 11.2716 25.6348 11.2715 43.3525V62.333C11.2715 65.4455 8.7483 67.9688 5.63576 67.9688C2.52321 67.9688 0 65.4455 0 62.333V43.3525C4.83256e-05 19.4096 19.4096 5.07358e-05 43.3525 0H62.333C65.4455 0 67.9688 2.52321 67.9688 5.63576Z" fill="#F5F1EB"/>
<path d="M107.208 0.00366211C130.892 0.303702 150 19.5966 150 43.3525V62.333C150 65.4455 147.477 67.9688 144.364 67.9688C141.252 67.9688 138.728 65.4455 138.728 62.333V43.3525C138.728 25.6348 124.365 11.2716 106.647 11.2715H87.667C84.5545 11.2715 82.0312 8.7483 82.0312 5.63576C82.0312 2.52321 84.5545 0 87.667 0H106.647L107.208 0.00366211Z" fill="#F5F1EB"/>
<path d="M79.0104 115.671C71.0927 115.441 62.9312 112.611 57.7619 108.287C55.036 106.063 52.8696 103.952 50.9748 101.694C49.6673 100.236 49.6341 99.4132 50.6814 97.8602C52.3881 95.4564 54.1058 93.327 55.6906 91.3402C56.2226 90.7693 56.749 90.0614 57.026 90.0502C57.4416 90.0334 58.0233 90.6967 58.7381 91.2172C59.3198 91.8805 59.9015 92.5437 60.4778 93.0698C61.3476 93.9962 62.356 94.9169 63.3644 95.8376C66.3895 98.5998 71.6586 101.958 75.997 102.882C76.4181 103.002 77.1162 103.111 77.6703 103.089L77.8088 103.083C81.4048 102.801 85.8653 99.8741 86.2534 95.7381C86.5638 93.116 86.2038 91.0704 85.0348 89.6067C81.8158 85.4789 77.2448 82.2297 72.962 79.2436C70.6792 77.6876 68.3965 76.1315 66.3908 74.5643L66.2468 74.4328C63.5208 72.2079 60.9224 69.7032 58.1632 66.6556C54.1021 62.2871 52.6728 57.8124 53.5762 52.6941C55.3997 42.8691 61.5282 36.5786 71.5793 34.6622C72.6819 34.4804 73.7846 34.2985 74.8927 34.2538C75.0312 34.2482 75.3083 34.2371 75.4468 34.2315C80.018 34.047 84.6389 35.0967 89.5867 37.3692C92.8446 39.0233 95.2603 40.4366 97.4045 41.9982C98.701 43.182 99.4324 44.1139 99.4711 45.0737C99.5043 45.8965 99.1274 46.8731 98.058 47.8777C97.6591 48.3058 97.3986 48.7284 96.9996 49.1565C95.8028 50.4409 94.6114 51.8624 93.1264 52.8838C92.3119 53.3287 91.7689 53.6253 91.3533 53.642C90.7992 53.6644 90.2341 53.4125 89.5194 52.892C87.6577 51.4563 85.9291 49.8779 84.35 48.5681C81.7682 46.4748 78.8371 46.0437 75.9171 45.8868C75.6401 45.898 75.5015 45.9036 75.2245 45.9148L75.086 45.9204C72.4541 46.0266 69.6005 47.5152 68.0434 50.1875C66.4697 52.4486 66.7244 55.3225 68.5194 58.5464C71.0569 62.9764 75.6112 65.8142 79.4841 68.9542L79.6281 69.0858C80.631 69.8694 81.4897 70.5214 82.4871 71.1679C83.3458 71.82 84.1991 72.335 85.0634 73.1242C86.6369 74.2968 88.3545 75.6009 89.9225 76.6364L90.6428 77.2941C95.0752 80.5488 97.8731 84.5563 99.3411 89.9909C101.452 97.597 99.0799 104.148 92.1147 110.335C88.4909 113.365 84.2631 115.184 79.0104 115.671Z" fill="#F5F1EB"/>
<path d="M107.208 0.00366211C130.892 0.303702 150 19.5966 150 43.3525V62.333C150 65.4455 147.477 67.9688 144.364 67.9688C141.252 67.9688 138.728 65.4455 138.728 62.333V43.3525C138.728 25.6348 124.365 11.2716 106.647 11.2715H87.667C84.5545 11.2715 82.0312 8.7483 82.0312 5.63576C82.0312 2.52321 84.5545 0 87.667 0H106.647L107.208 0.00366211Z" fill="#E57016"/>
<path d="M107.208 0.00366211C130.892 0.303702 150 19.5966 150 43.3525V62.333C150 65.4455 147.477 67.9688 144.364 67.9688C141.252 67.9688 138.728 65.4455 138.728 62.333V43.3525C138.728 25.6348 124.365 11.2716 106.647 11.2715H87.667C84.5545 11.2715 82.0312 8.7483 82.0312 5.63576C82.0312 2.52321 84.5545 0 87.667 0H106.647L107.208 0.00366211Z" fill="#4F5E2E"/>
<path d="M11.2715 106.647C11.2716 124.365 25.6348 138.728 43.3525 138.728H62.333C65.4455 138.728 67.9688 141.252 67.9688 144.364C67.9688 147.477 65.4455 150 62.333 150H43.3525C19.5966 150 0.303705 130.892 0.00366211 107.208L0 106.647V87.667C0 84.5545 2.52321 82.0312 5.63576 82.0312C8.7483 82.0312 11.2715 84.5545 11.2715 87.667V106.647Z" fill="#F5F1EB"/>
<path d="M150 106.647L149.996 107.208C149.699 130.706 130.706 149.699 107.208 149.996L106.647 150H87.667C84.5545 150 82.0312 147.477 82.0312 144.364C82.0312 141.252 84.5545 138.728 87.667 138.728H106.647C124.365 138.728 138.728 124.365 138.728 106.647V87.667C138.728 84.5545 141.252 82.0312 144.364 82.0312C147.477 82.0312 150 84.5545 150 87.667V106.647Z" fill="#F5F1EB"/>
<path d="M67.9688 5.63576C67.9688 8.7483 65.4455 11.2715 62.333 11.2715H43.3525C25.6348 11.2716 11.2716 25.6348 11.2715 43.3525V62.333C11.2715 65.4455 8.7483 67.9688 5.63576 67.9688C2.52321 67.9688 0 65.4455 0 62.333V43.3525C4.83256e-05 19.4096 19.4096 5.07358e-05 43.3525 0H62.333C65.4455 0 67.9688 2.52321 67.9688 5.63576Z" fill="#F5F1EB"/>
<path d="M107.208 0.00366211C130.892 0.303702 150 19.5966 150 43.3525V62.333C150 65.4455 147.477 67.9688 144.364 67.9688C141.252 67.9688 138.728 65.4455 138.728 62.333V43.3525C138.728 25.6348 124.365 11.2716 106.647 11.2715H87.667C84.5545 11.2715 82.0312 8.7483 82.0312 5.63576C82.0312 2.52321 84.5545 0 87.667 0H106.647L107.208 0.00366211Z" fill="#F5F1EB"/>
<path d="M79.0104 115.671C71.0927 115.441 62.9312 112.611 57.7619 108.287C55.036 106.063 52.8696 103.952 50.9748 101.694C49.6673 100.236 49.6341 99.4132 50.6814 97.8602C52.3881 95.4564 54.1058 93.327 55.6906 91.3402C56.2226 90.7693 56.749 90.0614 57.026 90.0502C57.4416 90.0334 58.0233 90.6967 58.7381 91.2172C59.3198 91.8805 59.9015 92.5437 60.4778 93.0698C61.3476 93.9962 62.356 94.9169 63.3644 95.8376C66.3895 98.5998 71.6586 101.958 75.997 102.882C76.4181 103.002 77.1162 103.111 77.6703 103.089L77.8088 103.083C81.4048 102.801 85.8653 99.8741 86.2534 95.7381C86.5638 93.116 86.2038 91.0704 85.0348 89.6067C81.8158 85.4789 77.2448 82.2297 72.962 79.2436C70.6792 77.6876 68.3965 76.1315 66.3908 74.5643L66.2468 74.4328C63.5208 72.2079 60.9224 69.7032 58.1632 66.6556C54.1021 62.2871 52.6728 57.8124 53.5762 52.6941C55.3997 42.8691 61.5282 36.5786 71.5793 34.6622C72.6819 34.4804 73.7846 34.2985 74.8927 34.2538C75.0312 34.2482 75.3083 34.2371 75.4468 34.2315C80.018 34.047 84.6389 35.0967 89.5867 37.3692C92.8446 39.0233 95.2603 40.4366 97.4045 41.9982C98.701 43.182 99.4324 44.1139 99.4711 45.0737C99.5043 45.8965 99.1274 46.8731 98.058 47.8777C97.6591 48.3058 97.3986 48.7284 96.9996 49.1565C95.8028 50.4409 94.6114 51.8624 93.1264 52.8838C92.3119 53.3287 91.7689 53.6253 91.3533 53.642C90.7992 53.6644 90.2341 53.4125 89.5194 52.892C87.6577 51.4563 85.9291 49.8779 84.35 48.5681C81.7682 46.4748 78.8371 46.0437 75.9171 45.8868C75.6401 45.898 75.5015 45.9036 75.2245 45.9148L75.086 45.9204C72.4541 46.0266 69.6005 47.5152 68.0434 50.1875C66.4697 52.4486 66.7244 55.3225 68.5194 58.5464C71.0569 62.9764 75.6112 65.8142 79.4841 68.9542L79.6281 69.0858C80.631 69.8694 81.4897 70.5214 82.4871 71.1679C83.3458 71.82 84.1991 72.335 85.0634 73.1242C86.6369 74.2968 88.3545 75.6009 89.9225 76.6364L90.6428 77.2941C95.0752 80.5488 97.8731 84.5563 99.3411 89.9909C101.452 97.597 99.0799 104.148 92.1147 110.335C88.4909 113.365 84.2631 115.184 79.0104 115.671Z" fill="#F5F1EB"/>
<path d="M107.208 0.00366211C130.892 0.303702 150 19.5966 150 43.3525V62.333C150 65.4455 147.477 67.9688 144.364 67.9688C141.252 67.9688 138.728 65.4455 138.728 62.333V43.3525C138.728 25.6348 124.365 11.2716 106.647 11.2715H87.667C84.5545 11.2715 82.0312 8.7483 82.0312 5.63576C82.0312 2.52321 84.5545 0 87.667 0H106.647L107.208 0.00366211Z" fill="#4F5E2E"/>
<path d="M25.4933 210.336C22.7573 210.144 19.9733 209.04 18.2453 207.456C17.3333 206.64 16.6133 205.872 15.9893 205.056C15.5573 204.528 15.5573 204.24 15.9413 203.712C16.5653 202.896 17.1893 202.176 17.7653 201.504C17.9573 201.312 18.1493 201.072 18.2453 201.072C18.3893 201.072 18.5813 201.312 18.8213 201.504C19.0133 201.744 19.2053 201.984 19.3973 202.176C19.6853 202.512 20.0213 202.848 20.3573 203.184C21.3653 204.192 23.1413 205.44 24.6293 205.824C24.7733 205.872 25.0133 205.92 25.2053 205.92H25.2533C26.5013 205.872 28.0853 204.912 28.2773 203.472C28.4213 202.56 28.3253 201.84 27.9413 201.312C26.8853 199.824 25.3493 198.624 23.9093 197.52C23.1413 196.944 22.3733 196.368 21.7013 195.792L21.6533 195.744C20.7413 194.928 19.8773 194.016 18.9653 192.912C17.6213 191.328 17.1893 189.744 17.5733 187.968C18.3413 184.56 20.5493 182.448 24.0533 181.92C24.4373 181.872 24.8213 181.824 25.2053 181.824C25.2533 181.824 25.3493 181.824 25.3973 181.824C26.9813 181.824 28.5653 182.256 30.2453 183.12C31.3493 183.744 32.1653 184.272 32.8853 184.848C33.3173 185.28 33.5573 185.616 33.5573 185.952C33.5573 186.24 33.4133 186.576 33.0293 186.912C32.8853 187.056 32.7893 187.2 32.6453 187.344C32.2133 187.776 31.7813 188.256 31.2533 188.592C30.9653 188.736 30.7733 188.832 30.6293 188.832C30.4373 188.832 30.2453 188.736 30.0053 188.544C29.3813 188.016 28.8053 187.44 28.2773 186.96C27.4133 186.192 26.4053 186 25.3973 185.904C25.3013 185.904 25.2533 185.904 25.1573 185.904H25.1093C24.1973 185.904 23.1893 186.384 22.6133 187.296C22.0373 188.064 22.0853 189.072 22.6613 190.224C23.4773 191.808 25.0133 192.864 26.3093 194.016L26.3573 194.064C26.6933 194.352 26.9813 194.592 27.3173 194.832C27.6053 195.072 27.8933 195.264 28.1813 195.552C28.7093 195.984 29.2853 196.464 29.8133 196.848L30.0533 197.088C31.5413 198.288 32.4533 199.728 32.8853 201.648C33.5093 204.336 32.5973 206.592 30.1013 208.656C28.8053 209.664 27.3173 210.24 25.4933 210.336Z" fill="#4F5E2E"/>
<path d="M50.1121 210.096C48.0961 210.096 46.5121 209.712 45.2161 208.992C44.0641 208.368 43.2961 207.648 42.4801 206.88L42.1441 206.592C39.5041 204.144 38.2081 199.584 38.3521 196.32C38.4961 192.24 39.6961 188.928 41.9521 186.24C44.0161 183.84 46.4161 182.4 49.1041 181.968C49.5361 181.92 50.0161 181.872 50.4481 181.872C51.9841 181.872 53.4721 182.256 54.9121 183.072C56.2561 183.888 57.4081 184.848 58.3201 186.048C58.5601 186.384 58.5601 186.528 58.3201 186.864C57.6481 187.68 56.9281 188.496 56.0641 189.408C55.7761 189.696 55.5841 189.84 55.3921 189.84C55.2001 189.84 55.0081 189.696 54.6721 189.312C54.1441 188.736 53.5681 188.256 52.8961 187.824C51.9841 187.152 50.7841 186.72 49.7761 186.72C49.6321 186.72 49.5361 186.72 49.4401 186.72C48.1441 186.864 47.1841 187.92 46.3201 188.784H46.2721C46.1761 188.88 46.1281 188.976 46.0321 189.072C44.4001 190.608 43.7761 192.528 43.4401 194.016C42.9601 195.84 42.9121 197.808 43.4401 200.016C43.6321 200.736 43.9681 201.408 44.4961 202.032C44.6881 202.272 44.9281 202.512 45.1201 202.752V202.8C45.4081 203.184 45.7441 203.568 46.0321 203.952C46.5121 204.48 47.0401 204.816 47.7601 205.104C47.9521 205.2 48.0961 205.248 48.2881 205.344C48.6721 205.536 49.1041 205.632 49.6321 205.632C49.9681 205.632 50.2081 205.632 50.5441 205.584H50.5921C52.7041 205.344 54.2401 203.712 55.3441 202.512C55.6321 202.224 55.7761 202.128 55.9201 202.128C56.0641 202.128 56.2081 202.224 56.4481 202.368C56.8801 202.704 57.3121 203.376 57.6961 204.048C57.8881 204.432 58.1281 204.768 58.3201 205.056C58.5601 205.392 58.5601 205.728 58.3201 206.112C58.0321 206.688 57.6001 207.12 57.2641 207.456C55.5841 208.992 53.6161 209.808 51.3601 210.048C50.9281 210.048 50.4961 210.096 50.1121 210.096Z" fill="#4F5E2E"/>
<path d="M73.6219 210C72.8539 210 72.0859 209.856 71.4619 209.76C69.3499 209.328 67.5739 208.128 65.8459 205.968C64.4539 204.24 63.6379 202.512 63.3979 200.688C63.3499 200.4 63.3019 200.064 63.2059 199.728C62.7739 198.096 62.9179 196.416 63.0619 194.784C63.1099 194.256 63.1579 193.68 63.2059 193.104C63.2539 191.28 63.5899 189.888 64.2139 188.688L64.2619 188.64C65.1259 187.056 65.9899 185.424 67.3339 184.224C68.2459 183.456 69.3019 182.88 70.4539 182.4C71.5579 181.968 72.5659 181.776 73.6699 181.776C73.7659 181.776 73.8619 181.776 73.9579 181.776C76.9339 181.92 79.0459 182.832 80.6779 184.704C82.8859 187.296 84.0379 190.224 84.0379 193.44C84.0859 193.536 84.0859 193.632 84.0859 193.728C84.0859 193.824 84.1339 193.92 84.1339 194.016V194.88C84.0379 196.752 83.9899 198.672 83.5579 200.208C83.0779 201.984 82.3099 203.856 81.4459 205.344C80.1019 207.792 77.8939 209.28 74.7259 209.904C74.3899 210 74.0059 210 73.6219 210ZM74.2939 186.48C74.2459 186.48 74.1979 186.48 74.1499 186.48C72.0379 186.912 70.5979 187.728 69.5899 189.072C68.7739 190.128 68.1979 191.376 67.8139 192.72C66.9979 195.984 67.2379 199.104 68.6779 202.032C69.7339 204.288 71.1259 205.296 73.1899 205.296C73.6219 205.296 74.0539 205.248 74.5819 205.152C75.8779 204.864 76.6939 204.048 77.5579 203.136L77.7499 202.944C78.0859 202.608 78.3259 202.224 78.5179 201.696C79.3339 199.488 79.7179 197.184 79.6699 195.024C79.6699 193.488 79.6699 192.048 79.1899 190.656C78.6619 189.168 77.8459 187.584 75.9259 187.008C75.6859 186.96 75.4459 186.864 75.2539 186.768C75.1099 186.72 74.9179 186.624 74.7259 186.576C74.5819 186.528 74.4379 186.48 74.2939 186.48Z" fill="#4F5E2E"/>
<path d="M99.7223 210C98.3783 210 96.4583 209.664 94.9223 208.56C92.2343 206.736 90.8903 204.096 90.6983 200.496C90.6023 197.952 90.6503 195.36 90.6983 192.864L90.7463 191.808C90.7463 191.136 90.7463 190.416 90.7463 189.744C90.7463 188.832 90.7463 187.824 90.8423 186.624C90.8903 186.144 90.8903 185.904 90.8423 185.184C90.8423 185.04 90.7943 184.848 90.7943 184.704C90.7463 184.416 90.6983 184.128 90.7463 183.888C90.7463 183.792 90.6983 183.744 90.6983 183.696V183.648C90.6503 183.024 90.7943 182.64 91.0343 182.4C91.2263 182.208 91.5143 182.112 91.8983 182.112C92.0423 182.112 92.1383 182.16 92.2823 182.16C92.3783 182.16 92.5223 182.16 92.6183 182.16C92.9063 182.16 93.1463 182.16 93.3383 182.112C93.5783 182.112 93.8183 182.112 94.0583 182.112C94.2983 182.112 94.5383 182.112 94.7303 182.16C95.1623 182.304 95.3063 182.4 95.3063 182.832C95.3543 183.552 95.4023 184.272 95.4023 184.944C95.4503 185.856 95.4503 186.768 95.4023 187.68C95.4023 187.968 95.4023 188.304 95.3543 188.592C95.3063 191.904 95.2103 195.456 95.2583 198.864C95.3063 199.872 95.3543 201.168 95.7863 202.368C96.4103 204.144 97.9943 205.344 99.6743 205.344C100.442 205.344 101.162 205.152 101.834 204.672C103.13 203.856 103.466 203.28 103.802 202.032C104.042 201.264 104.138 200.256 104.138 198.96C104.186 198.048 104.186 197.136 104.138 196.272C104.138 195.408 104.138 194.496 104.138 193.584C104.186 192.768 104.186 191.952 104.186 191.184V190.992C104.186 189.984 104.186 188.928 104.234 187.872C104.234 187.104 104.234 186.384 104.186 185.664C104.138 185.088 104.09 184.464 104.09 183.84C104.09 183.456 104.186 183.072 104.282 182.736C104.378 182.304 104.57 182.16 104.954 182.16C105.002 182.16 105.05 182.16 105.098 182.16C105.29 182.16 105.53 182.16 105.77 182.16C106.01 182.16 106.25 182.16 106.49 182.16H106.538C106.778 182.16 107.066 182.112 107.306 182.112C107.594 182.112 107.834 182.16 108.074 182.16C108.602 182.256 108.746 182.4 108.746 182.88C108.698 183.552 108.746 184.272 108.746 184.944C108.746 185.136 108.698 185.28 108.698 185.424C108.698 185.568 108.65 185.712 108.65 185.856C108.65 185.904 108.698 186 108.698 186L108.746 186.192C108.746 186.336 108.746 186.48 108.746 186.624C108.842 187.536 108.794 188.4 108.794 189.264C108.746 190.032 108.746 190.8 108.746 191.52C108.794 192.432 108.746 193.296 108.746 194.16C108.698 195.024 108.65 195.888 108.698 196.8C108.746 197.856 108.746 198.288 108.698 198.96C108.698 199.296 108.698 199.632 108.698 200.064C108.698 201.936 108.314 203.04 108.074 203.76C108.026 203.952 107.978 204.096 107.93 204.24C107.018 206.256 106.25 207.264 104.906 208.32C104.906 208.32 104.858 208.32 104.81 208.32C104.762 208.32 104.666 208.368 104.57 208.464C104.234 208.704 103.802 208.896 103.418 209.088L103.274 209.184C102.17 209.712 100.922 210 99.7223 210Z" fill="#4F5E2E"/>
<path d="M125.009 209.904C124.577 209.904 124.049 209.856 123.713 209.808C123.617 209.808 123.569 209.808 123.473 209.808C123.281 209.76 123.089 209.76 122.945 209.76C122.753 209.76 122.609 209.76 122.465 209.808C122.369 209.856 122.321 209.856 122.273 209.856C122.129 209.856 121.985 209.76 121.889 209.328C121.697 208.752 121.745 208.176 121.793 207.552C121.793 207.456 121.793 207.36 121.793 207.264C121.889 205.296 121.889 203.28 121.889 201.36C121.889 200.928 121.889 200.496 121.889 200.112C121.889 199.344 121.889 198.624 121.889 197.904C121.889 195.504 121.889 192.816 121.985 190.32C122.033 189.792 121.985 189.024 121.985 188.496C121.985 188.208 121.937 187.92 121.937 187.632C121.937 186.96 121.601 186.624 120.929 186.624H120.881C120.497 186.624 120.065 186.624 119.537 186.624C119.249 186.624 119.105 186.624 118.865 186.624H118.385C118.145 186.624 117.905 186.624 117.665 186.624H117.617C117.521 186.624 117.377 186.624 117.233 186.624C117.137 186.624 116.321 186.624 116.321 186.624C115.937 186.624 115.505 186.624 115.073 186.624C114.737 186.624 114.449 186.528 114.305 186.336C114.161 186.192 114.161 185.952 114.209 185.616C114.401 184.608 114.353 184.032 114.305 182.832C114.305 182.448 114.401 182.304 114.737 182.208C114.785 182.208 114.833 182.16 114.881 182.16C115.073 182.112 115.265 182.064 115.409 182.064C115.457 182.064 115.457 182.064 115.457 182.064H115.553C116.321 182.16 116.657 182.208 117.665 182.208C118.337 182.208 118.961 182.16 119.585 182.16H119.633C120.161 182.16 120.689 182.16 121.217 182.16C121.553 182.112 121.889 182.112 122.225 182.112C123.761 182.112 125.249 182.16 126.689 182.16H126.833C127.841 182.208 128.801 182.208 129.761 182.208C129.857 182.208 129.953 182.208 130.049 182.208C130.481 182.208 130.913 182.208 131.345 182.208C131.777 182.208 132.209 182.208 132.641 182.208C132.785 182.208 132.929 182.208 133.121 182.208C134.081 182.208 134.177 182.304 134.177 183.312L134.225 184.032C134.225 184.656 134.225 184.944 134.177 185.616C134.177 186.096 133.937 186.384 133.457 186.432H133.409C132.449 186.624 131.633 186.624 130.961 186.624C130.625 186.624 130.337 186.624 130.001 186.624H129.953C129.617 186.624 129.281 186.624 128.945 186.624C128.705 186.624 128.465 186.624 128.225 186.624H128.177C126.881 186.672 126.785 186.768 126.689 188.016V188.112C126.593 189.792 126.593 191.952 126.593 193.584V193.632C126.593 194.544 126.593 195.456 126.593 196.368C126.545 197.808 126.545 199.2 126.641 200.64C126.689 201.12 126.641 201.6 126.593 202.128C126.593 202.56 126.545 203.04 126.545 203.52C126.593 203.808 126.593 204.048 126.593 204.336V204.432C126.641 205.2 126.689 206.016 126.689 206.832C126.689 207.264 126.641 207.696 126.641 208.128C126.593 208.512 126.545 208.944 126.545 209.328C126.545 209.664 126.305 209.856 125.777 209.856C125.585 209.856 125.201 209.904 125.009 209.904Z" fill="#4F5E2E"/>
</svg>
