<svg width="80" height="80" viewBox="0 0 80 80" fill="none" xmlns="http://www.w3.org/2000/svg">
<path d="M57.1775 0.00195313C69.8093 0.161975 80 10.4515 80 23.1213V33.2443C80 34.9043 78.6543 36.25 76.9943 36.25C75.3342 36.25 73.9885 34.9043 73.9885 33.2443V23.1213C73.9885 13.6719 66.3281 6.0115 56.8787 6.01147H46.7557C45.0957 6.01147 43.75 4.66576 43.75 3.00574C43.75 1.34571 45.0957 0 46.7557 0H56.8787L57.1775 0.00195313Z" fill="#4F5E2E"/>
<path d="M6.01147 56.8787C6.0115 66.3281 13.6719 73.9885 23.1213 73.9885H33.2443C34.9043 73.9885 36.25 75.3342 36.25 76.9943C36.25 78.6543 34.9043 80 33.2443 80H23.1213C10.4515 80 0.161976 69.8093 0.00195313 57.1775L0 56.8787V46.7557C0 45.0957 1.34571 43.75 3.00574 43.75C4.66576 43.75 6.01147 45.0957 6.01147 46.7557V56.8787Z" fill="#0C0C0C"/>
<path d="M80 56.8787L79.9981 57.1775C79.8393 69.7099 69.7099 79.8393 57.1775 79.9981L56.8787 80H46.7557C45.0957 80 43.75 78.6543 43.75 76.9943C43.75 75.3342 45.0957 73.9885 46.7557 73.9885H56.8787C66.3281 73.9885 73.9885 66.3281 73.9885 56.8787V46.7557C73.9885 45.0957 75.3342 43.75 76.9943 43.75C78.6543 43.75 80 45.0957 80 46.7557V56.8787Z" fill="#0C0C0C"/>
<path d="M36.25 3.00574C36.25 4.66576 34.9043 6.01147 33.2443 6.01147H23.1213C13.6719 6.0115 6.0115 13.6719 6.01147 23.1213V33.2443C6.01147 34.9043 4.66576 36.25 3.00574 36.25C1.34571 36.25 0 34.9043 0 33.2443V23.1213C2.57737e-05 10.3518 10.3518 2.70591e-05 23.1213 0H33.2443C34.9043 0 36.25 1.34571 36.25 3.00574Z" fill="#0C0C0C"/>
<path d="M57.1775 0.00195313C69.8093 0.161975 80 10.4515 80 23.1213V33.2443C80 34.9043 78.6543 36.25 76.9943 36.25C75.3342 36.25 73.9885 34.9043 73.9885 33.2443V23.1213C73.9885 13.6719 66.3281 6.0115 56.8787 6.01147H46.7557C45.0957 6.01147 43.75 4.66576 43.75 3.00574C43.75 1.34571 45.0957 0 46.7557 0H56.8787L57.1775 0.00195313Z" fill="#0C0C0C"/>
<path d="M42.1389 61.6911C37.9161 61.5684 33.5633 60.0593 30.8064 57.7533C29.3525 56.5667 28.1971 55.4413 27.1866 54.2368C26.4892 53.4592 26.4715 53.0204 27.0301 52.1921C27.9403 50.9101 28.8564 49.7744 29.7017 48.7148C29.9854 48.4103 30.2661 48.0327 30.4139 48.0268C30.6355 48.0178 30.9458 48.3716 31.327 48.6492C31.6372 49.0029 31.9475 49.3567 32.2548 49.6373C32.7187 50.1313 33.2565 50.6223 33.7943 51.1134C35.4077 52.5866 38.2179 54.3777 40.5317 54.8703C40.7563 54.9345 41.1286 54.9927 41.4242 54.9808L41.498 54.9778C43.4159 54.8272 45.7948 53.2662 46.0018 51.0603C46.1674 49.6619 45.9754 48.5709 45.3519 47.7903C43.6351 45.5888 41.1972 43.8559 38.9131 42.2633C37.6956 41.4334 36.4781 40.6035 35.4085 39.7676L35.3316 39.6975C33.8778 38.5109 32.4919 37.1751 31.0204 35.5497C28.8544 33.2198 28.0922 30.8333 28.574 28.1035C29.5465 22.8635 32.815 19.5086 38.1756 18.4865C38.7637 18.3895 39.3518 18.2926 39.9428 18.2687C40.0167 18.2657 40.1644 18.2598 40.2383 18.2568C42.6763 18.1584 45.1408 18.7182 47.7796 19.9303C49.5171 20.8124 50.8055 21.5662 51.9491 22.399C52.6405 23.0304 53.0306 23.5274 53.0512 24.0393C53.069 24.4781 52.868 24.999 52.2976 25.5348C52.0848 25.7631 51.9459 25.9885 51.7331 26.2168C51.0948 26.9018 50.4594 27.66 49.6674 28.2047C49.233 28.4419 48.9434 28.6001 48.7218 28.6091C48.4263 28.621 48.1249 28.4867 47.7437 28.209C46.7508 27.4433 45.8289 26.6015 44.9867 25.903C43.6097 24.7866 42.0465 24.5566 40.4891 24.473C40.3414 24.4789 40.2675 24.4819 40.1197 24.4879L40.0459 24.4909C38.6422 24.5475 37.1203 25.3414 36.2898 26.7667C35.4505 27.9726 35.5863 29.5054 36.5437 31.2247C37.897 33.5874 40.326 35.1009 42.3915 36.7756L42.4683 36.8457C43.0032 37.2637 43.4612 37.6114 43.9931 37.9562C44.4511 38.304 44.9062 38.5786 45.3672 38.9996C46.2064 39.6249 47.1224 40.3205 47.9587 40.8728L48.3428 41.2235C50.7068 42.9594 52.199 45.0967 52.9819 47.9951C54.1076 52.0518 52.8426 55.5456 49.1279 58.8453C47.1951 60.4615 44.9403 61.4315 42.1389 61.6911Z" fill="#0C0C0C"/>
<path d="M57.1775 0.00195313C69.8093 0.161975 80 10.4515 80 23.1213V33.2443C80 34.9043 78.6543 36.25 76.9943 36.25C75.3342 36.25 73.9885 34.9043 73.9885 33.2443V23.1213C73.9885 13.6719 66.3281 6.0115 56.8787 6.01147H46.7557C45.0957 6.01147 43.75 4.66576 43.75 3.00574C43.75 1.34571 45.0957 0 46.7557 0H56.8787L57.1775 0.00195313Z" fill="#4F5E2E"/>
</svg>
