<svg width="104" height="110" viewBox="0 0 104 110" fill="none" xmlns="http://www.w3.org/2000/svg">
<path d="M77.094 40.7987C77.3701 41.0232 77.6463 41.2477 77.9224 41.4722C78.3741 41.7629 78.7883 42.0996 79.1651 42.4823C79.3118 42.678 79.5419 42.865 79.726 43.0147C79.9648 43.2852 80.1489 43.4348 79.9704 43.7484C79.8294 44.0159 79.5963 44.2087 79.4092 44.4388C79.1473 44.761 78.848 45.1292 78.5862 45.4513C78.212 45.9116 77.8005 46.4179 77.4264 46.8781C77.3515 46.9702 77.2767 47.0622 77.2019 47.1543L76.0047 48.6271C75.6018 49.2168 75.1528 49.7691 74.629 50.4134L74.2175 50.9197C73.6189 51.6561 73.0951 52.3004 72.58 53.0282C72.5426 53.0742 72.5051 53.1203 72.5051 53.1203C72.1684 53.5345 71.7138 53.6236 71.2996 53.2869C70.1576 52.435 69.053 51.5371 68.0779 50.668C67.609 50.2104 67.6206 49.9141 68.0695 49.3618C69.8567 47.0692 71.9144 44.5378 73.7476 42.2826C74.0095 41.9604 74.2714 41.6382 74.5333 41.316C74.9534 40.8932 75.3564 40.3035 75.9692 40.1137C76.1361 40.0965 76.349 40.1167 76.4871 40.2289C76.7172 40.416 76.8639 40.6117 77.094 40.7987Z" fill="#F5F1EB"/>
<path d="M78.2337 24.7146C78.5895 24.7219 78.9453 24.7292 79.3011 24.7366C79.836 24.6883 80.3697 24.6993 80.9022 24.7696C81.1381 24.8338 81.4346 24.8399 81.6718 24.8448C82.0264 24.9115 82.2636 24.9164 82.3156 25.2734C82.3688 25.5711 82.3033 25.8664 82.2972 26.1629C82.2887 26.578 82.2789 27.0524 82.2703 27.4675C82.2581 28.0605 82.2446 28.7128 82.2324 29.3058C82.2299 29.4244 82.2275 29.543 82.225 29.6616L82.1859 31.5592C82.2305 32.272 82.2158 32.9836 82.1987 33.8138L82.1852 34.4661C82.1656 35.4149 82.1485 36.2451 82.1895 37.1358C82.1882 37.1951 82.187 37.2544 82.187 37.2544C82.176 37.7881 81.8722 38.1378 81.3385 38.1268C79.914 38.1567 78.4908 38.1274 77.1875 38.0412C76.5364 37.9684 76.3634 37.7275 76.3781 37.0159C76.3787 34.109 76.446 30.8475 76.506 27.9418C76.5145 27.5267 76.5231 27.1116 76.5317 26.6965C76.6032 26.1047 76.5586 25.3919 76.9254 24.8655C77.0464 24.7494 77.2268 24.6345 77.4047 24.6381C77.7012 24.6442 77.9372 24.7084 78.2337 24.7146Z" fill="#F5F1EB"/>
<path d="M66.5383 53.1541C66.678 53.4814 66.8176 53.8088 66.9573 54.1361C67.2213 54.6038 67.4308 55.0948 67.5857 55.6091C67.6242 55.8506 67.7406 56.1234 67.8337 56.3416C67.9188 56.6922 68.0119 56.9104 67.7078 57.1046C67.4583 57.2756 67.1623 57.3374 66.8895 57.4537C66.5076 57.6167 66.0712 57.8029 65.6893 57.9658C65.1437 58.1985 64.5436 58.4545 63.9981 58.6873C63.889 58.7338 63.7799 58.7804 63.6707 58.8269L61.925 59.5717C61.2936 59.9056 60.6389 60.1849 59.8751 60.5107L59.275 60.7667C58.4022 61.1391 57.6384 61.465 56.8433 61.8686C56.7888 61.8919 56.7342 61.9152 56.7342 61.9152C56.2432 62.1246 55.7995 61.9915 55.59 61.5005C54.9769 60.2145 54.4183 58.9051 53.9608 57.6816C53.7594 57.0583 53.9078 56.8015 54.5624 56.5222C57.2124 55.3272 60.2129 54.0471 62.8861 52.9067C63.268 52.7437 63.6499 52.5808 64.0318 52.4179C64.6006 52.2397 65.232 51.9059 65.8626 52.0237C66.0183 52.0863 66.1972 52.2034 66.2671 52.3671C66.3834 52.6398 66.422 52.8813 66.5383 53.1541Z" fill="#F5F1EB"/>
<path d="M51.0649 58.0125C51.0357 58.3671 51.0065 58.7218 50.9773 59.0765C50.9926 59.6134 50.9489 60.1454 50.8459 60.6725C50.7674 60.9041 50.743 61.1997 50.7236 61.4361C50.6353 61.786 50.6158 62.0224 50.2563 62.0523C49.9558 62.0871 49.6651 62.0037 49.3696 61.9793C48.9558 61.9453 48.4829 61.9063 48.0691 61.8723C47.478 61.8236 46.8277 61.7701 46.2366 61.7214C46.1184 61.7117 46.0001 61.702 45.8819 61.6922L43.9903 61.5365C43.2761 61.5372 42.5667 61.4788 41.7392 61.4107L41.0889 61.3572C40.1431 61.2793 39.3155 61.2112 38.424 61.1973C38.3649 61.1925 38.3058 61.1876 38.3058 61.1876C37.7737 61.1438 37.4434 60.819 37.4872 60.287C37.5449 58.8635 37.6617 57.4448 37.8278 56.1491C37.9405 55.5038 38.1915 55.3459 38.9009 55.4043C41.8023 55.5836 45.0534 55.8513 47.95 56.0897C48.3638 56.1238 48.7776 56.1578 49.1913 56.1919C49.7776 56.2996 50.4918 56.2989 50.9946 56.6974C51.1031 56.8254 51.2068 57.0124 51.1922 57.1898C51.1678 57.4853 51.0893 57.7169 51.0649 58.0125Z" fill="#F5F1EB"/>
<path d="M33.3612 57.3507C33.4248 57.7008 33.4884 58.0509 33.552 58.4011C33.7058 58.9157 33.8012 59.4409 33.8382 59.9768C33.8222 60.2208 33.8752 60.5126 33.9176 60.746C33.9229 61.1068 33.9653 61.3402 33.6257 61.4621C33.3445 61.5735 33.0421 61.5681 32.7503 61.6211C32.3418 61.6953 31.875 61.7801 31.4665 61.8543C30.8829 61.9603 30.241 62.0769 29.6574 62.1829C29.5407 62.2041 29.4239 62.2253 29.3072 62.2465L27.4398 62.5857C26.7501 62.7712 26.0498 62.8984 25.2328 63.0468L24.5908 63.1634C23.6571 63.333 22.8401 63.4814 21.9753 63.6987C21.917 63.7093 21.8586 63.7199 21.8586 63.7199C21.3334 63.8153 20.9302 63.5871 20.8349 63.0619C20.5221 61.6719 20.2677 60.2713 20.0929 58.9768C20.0347 58.3243 20.2363 58.1068 20.9366 57.9796C23.7855 57.4019 26.9952 56.819 29.8548 56.2996C30.2633 56.2254 30.6718 56.1512 31.0803 56.077C31.6745 56.0294 32.3642 55.8438 32.953 56.0986C33.0909 56.1941 33.2394 56.348 33.2712 56.523C33.3242 56.8148 33.3082 57.0589 33.3612 57.3507Z" fill="#F5F1EB"/>
<path d="M16.0107 63.0948C16.3032 63.2975 16.5958 63.5001 16.8884 63.7027C17.361 63.9579 17.7998 64.2618 18.2049 64.6145C18.3661 64.7983 18.6099 64.9672 18.805 65.1023C19.0638 65.3537 19.2588 65.4887 19.105 65.8151C18.9849 66.0926 18.7672 66.3027 18.5984 66.5465C18.362 66.8878 18.0918 67.2779 17.8554 67.6192C17.5177 68.1068 17.1463 68.6432 16.8086 69.1308C16.741 69.2283 16.6735 69.3258 16.6059 69.4233L15.5253 70.9836C15.1688 71.6025 14.7635 72.1877 14.2908 72.8703L13.9193 73.4067C13.379 74.1868 12.9062 74.8695 12.4484 75.6346C12.4146 75.6834 12.3808 75.7322 12.3808 75.7322C12.0769 76.171 11.6305 76.2947 11.1916 75.9908C9.98762 75.229 8.81738 74.4185 7.77843 73.6268C7.27584 73.2066 7.26464 72.9102 7.66989 72.3251C9.27588 69.9021 11.1333 67.2203 12.788 64.8311C13.0244 64.4897 13.2608 64.1484 13.4972 63.8071C13.8837 63.3533 14.2401 62.7344 14.8366 62.4982C15.0017 62.4682 15.2155 62.472 15.3618 62.5733C15.6056 62.7421 15.7669 62.926 16.0107 63.0948Z" fill="#F5F1EB"/>
<path d="M7.419 78.3216C7.77368 78.3508 8.12835 78.38 8.48303 78.4092C9.01991 78.3939 9.55192 78.4377 10.0791 78.5406C10.3107 78.6192 10.6062 78.6435 10.8427 78.663C11.1925 78.7513 11.4289 78.7707 11.4589 79.1303C11.4936 79.4307 11.4102 79.7214 11.3859 80.017C11.3518 80.4308 11.3129 80.9037 11.2788 81.3175C11.2301 81.9086 11.1766 82.5588 11.128 83.1499C11.1182 83.2682 11.1085 83.3864 11.0988 83.5046L10.943 85.3962C10.9438 86.1104 10.8854 86.8198 10.8172 87.6474L10.7637 88.2976C10.6859 89.2434 10.6177 90.071 10.6039 90.9626C10.599 91.0217 10.5941 91.0808 10.5941 91.0808C10.5503 91.6128 10.2256 91.9431 9.69356 91.8993C8.26999 91.8417 6.85129 91.7249 5.55567 91.5587C4.9103 91.4461 4.75242 91.195 4.81082 90.4857C4.99014 87.5843 5.25778 84.3331 5.49621 81.4366C5.53028 81.0228 5.56434 80.609 5.5984 80.1952C5.70617 79.6089 5.70545 78.8947 6.10392 78.3919C6.23188 78.2834 6.41895 78.1798 6.59629 78.1944C6.89185 78.2187 7.12344 78.2973 7.419 78.3216Z" fill="#F5F1EB"/>
<path d="M87.9236 10.2641C88.2004 10.4879 88.4771 10.7116 88.7538 10.9354C89.2062 11.2249 89.6213 11.5606 89.9991 11.9424C90.1463 12.1377 90.3769 12.3241 90.5613 12.4733C90.8008 12.7432 90.9853 12.8924 90.8076 13.2064C90.6673 13.4743 90.4347 13.6676 90.2482 13.8982C89.9871 14.2211 89.6888 14.59 89.4277 14.9129C89.0548 15.3741 88.6445 15.8814 88.2716 16.3426C88.197 16.4348 88.1224 16.5271 88.0478 16.6193L86.8544 18.0952C86.453 18.6859 86.0054 19.2394 85.4833 19.8851L85.0731 20.3924C84.4764 21.1303 83.9542 21.776 83.4409 22.5051C83.4036 22.5512 83.3663 22.5973 83.3663 22.5973C83.0307 23.0124 82.5763 23.1027 82.1612 22.767C81.0171 21.9181 79.9102 21.023 78.9328 20.1564C78.4628 19.7 78.4736 19.4037 78.9211 18.8502C80.7024 16.553 82.7536 14.0164 84.5811 11.7565C84.8421 11.4337 85.1032 11.1108 85.3643 10.788C85.7833 10.3641 86.1847 9.77331 86.7971 9.58199C86.9639 9.56434 87.1769 9.58398 87.3152 9.69587C87.5459 9.88234 87.693 10.0776 87.9236 10.2641Z" fill="#F5F1EB"/>
<path d="M101.724 3.53024C102.457 4.88694 103.962 6.29872 103.297 7.93872C102.021 11.1905 100.772 14.4945 99.283 17.7265C98.8344 18.6431 98.0177 20.5003 97.3251 22.0881C96.9287 22.9765 95.6313 23.0708 95.1801 22.2359L93.1781 18.5311C93.0089 18.218 92.9962 17.8203 93.1725 17.5228C94.1656 15.3681 95.0302 13.3502 95.7948 11.5212L96.311 10.231C96.4592 9.88124 96.6073 9.53152 96.7554 9.18181C96.9515 8.67133 97.1235 8.24124 97.3478 7.78294L97.3718 7.70257C95.4187 7.20737 93.8717 6.96464 92.3248 6.72191C91.6056 6.63863 90.9668 6.57933 90.2715 6.41567C89.1505 6.21248 87.9772 6.03748 86.7475 5.75813C86.4542 5.71438 86.1285 5.48589 85.9875 5.22498L84.0982 1.72887C83.647 0.893979 84.4368 -0.139617 85.3972 0.0156115C85.7709 0.083343 86.0642 0.127086 86.4379 0.194819C88.7844 0.544809 90.9462 0.927215 93.6467 1.55787C94.2615 1.69755 94.9004 1.75685 95.487 1.84435C95.9129 1.88388 96.3388 1.92342 96.7928 2.01513C97.1947 2.13504 97.5684 2.20277 97.9421 2.2705C99.4891 2.51323 100.691 2.74041 101.503 3.24535L101.64 3.37369L101.724 3.53024Z" fill="#F5F1EB"/>
<path d="M13.2342 102.606C13.2342 106.26 10.2716 109.223 6.6171 109.223C2.96258 109.223 0 106.26 0 102.606C0 98.9511 2.96258 95.9885 6.6171 95.9885C10.2716 95.9885 13.2342 98.9511 13.2342 102.606Z" fill="black"/>
</svg>
